<?xml version="1.0" encoding="utf-8"?>
<?xml-stylesheet type="text/xsl" href="rss1.xsl"?>
<rss version="2.0" xmlns:atom="http://www.w3.org/2005/Atom" xmlns:content="http://purl.org/rss/1.0/modules/content/" xmlns:dc="http://purl.org/dc/elements/1.1/" xmlns:media="http://search.yahoo.com/mrss/">
<channel>
 <title>Getty</title>
 <link>http://www.gettyimg.com/</link>
 <atom:link href="http://www.gettyimg.com/" rel="self" type="application/rss+xml" />

 
                <item>
                <title><![CDATA[【Requests】[REQ VID] - Maggie Rogers - Glastonbury 2019]]></title>
                <link><![CDATA[https://sharemania.us/threads/maggie-rogers-glastonbury-2019.235095/]]></link>
                <description><![CDATA[<article>
<blockquote class="messageText SelectQuoteContainer ugc baseHtml">
Looking for Maggie Roger's 2019 performance at Glastonbury in 1080p. She's in a white outfit with red scarf. Not looking for the 2023 performance. Thanks to anyone who might have this in advance!
<div class="messageTextEndMarker">&nbsp;</div>
</blockquote>
</article>]]></description>
                <author><![CDATA[matt616]]></author>
                </item>

                
                <item>
                <title><![CDATA[【Cinema Center】MOVIE - 40th Anniversary Disney Parks Magical Christmas Day Parade (2023) 1080p Disney+ WEB-DL DD+5.1 H.264-LAZY]]></title>
                <link><![CDATA[https://sharemania.us/threads/40th-anniversary-disney-parks-magical-christmas-day-parade-2023-1080p-disney-web-dl-dd-5-1-h-264-lazy.235096/]]></link>
                <description><![CDATA[<article>
<blockquote class="messageText SelectQuoteContainer ugc baseHtml">
40th Anniversary Disney Parks Magical Christmas Day Parade:<br>
<img src="https://i.imgur.com/vRTayVf.jpg" class="bbCodeImage LbImage" alt="[​IMG]" data-url="https://i.imgur.com/vRTayVf.jpg" style=""> <br>
<br>
<div class="bbCodeBlock bbCodeQuote">
<aside>
<blockquote class="quoteContainer"><div class="quote"><i><b>Synopsis:</b></i><br>
A Christmas parade featuring musical performances and celebrity guests; performers include Chrissy Metz, The Smashing Pumpkins and Iam Tongi; Julianne Hough and Derek Hough host.</div><div class="quoteExpand">Click to expand...</div></blockquote>
</aside>
</div>
<div class="ToggleTriggerAnchor bbCodeSpoilerContainer">
<button type="button" class="button bbCodeSpoilerButton ToggleTrigger Tooltip JsOnly" data-target="> .SpoilerTarget"><span>Spoiler: <span class="SpoilerTitle">MediaInfo</span></span></button>
<div class="SpoilerTarget bbCodeSpoilerText">General<br>
Unique ID : 294853790432543603091429771155650165561 (0xDDD2C640749577EDC45465EA2DA8BB39)<br>
Complete name : 40th.Anniversary.Disney.Parks.Magical.Christmas.Day.Parade.2023.1080p.DSNP.WEB-DL.DDP5.1.H.264-LAZY.mkv<br>
Format : Matroska<br>
Format version : Version 4<br>
File size : 4.23 GiB<br>
Duration : 1 h 17 min<br>
Overall bit rate mode : Variable<br>
Overall bit rate : 7 811 kb/s<br>
Encoded date : UTC 2024-01-02 04:35:19<br>
Writing application : mkvmerge v81.0 ('Milliontown') 64-bit<br>
Writing library : libebml v1.4.4 + libmatroska v1.7.1<br>
<br>
Video<br>
ID : 1<br>
Format : AVC<br>
Format/Info : Advanced Video Codec<br>
Format profile : High@L4<br>
Format settings : CABAC / 4 Ref Frames<br>
Format settings, CABAC : Yes<br>
Format settings, Reference frames : 4 frames<br>
Codec ID : V_MPEG4/ISO/AVC<br>
Duration : 1 h 17 min<br>
Bit rate mode : Variable<br>
Bit rate : 7 553 kb/s<br>
Maximum bit rate : 12.7 Mb/s<br>
Width : 1 920 pixels<br>
Height : 1 080 pixels<br>
Display aspect ratio : 16:9<br>
Frame rate mode : Constant<br>
Frame rate : 23.976 (24000/1001) FPS<br>
Color space : YUV<br>
Chroma subsampling : 4:2:0<br>
Bit depth : 8 bits<br>
Scan type : Progressive<br>
Bits/(Pixel*Frame) : 0.152<br>
Stream size : 4.09 GiB (97%)<br>
Default : Yes<br>
Forced : No<br>
Color range : Limited<br>
Color primaries : BT.709<br>
Transfer characteristics : BT.709<br>
Matrix coefficients : BT.709<br>
<br>
Audio<br>
ID : 2<br>
Format : E-AC-3<br>
Format/Info : Enhanced AC-3<br>
Commercial name : Dolby Digital Plus<br>
Codec ID : A_EAC3<br>
Duration : 1 h 17 min<br>
Bit rate mode : Constant<br>
Bit rate : 256 kb/s<br>
Channel(s) : 6 channels<br>
Channel layout : L R C LFE Ls Rs<br>
Sampling rate : 48.0 kHz<br>
Frame rate : 31.250 FPS (1536 SPF)<br>
Compression mode : Lossy<br>
Stream size : 142 MiB (3%)<br>
Language : English<br>
Service kind : Complete Main<br>
Default : Yes<br>
Forced : No<br>
<br>
Text #1<br>
ID : 3<br>
Format : UTF-8<br>
Codec ID : S_TEXT/UTF8<br>
Codec ID/Info : UTF-8 Plain Text<br>
Duration : 1 h 17 min<br>
Bit rate : 110 b/s<br>
Count of elements : 1524<br>
Stream size : 62.5 KiB (0%)<br>
Title : SDH<br>
Language : English<br>
Default : No<br>
Forced : No<br>
<br>
Text #2<br>
ID : 4<br>
Format : UTF-8<br>
Codec ID : S_TEXT/UTF8<br>
Codec ID/Info : UTF-8 Plain Text<br>
Duration : 1 h 15 min<br>
Bit rate : 70 b/s<br>
Count of elements : 1047<br>
Stream size : 39.3 KiB (0%)<br>
Language : English<br>
Default : No<br>
Forced : No<br>
<br>
Menu<br>
00:09:20.185 : en:Scene 1<br>
00:17:42.396 : en:Scene 2<br>
00:28:03.350 : en:Scene 3<br>
00:35:14.281 : en:Scene 4<br>
00:41:23.066 : en:Scene 5<br>
00:48:39.503 : en:Scene 6<br>
00:53:38.677 : en:Scene 7<br>
01:03:50.414 : en:Scene 8<br>
01:09:54.151 : en:Scene 9<br>
01:15:57.140 : en:Credits</div>
</div><br>
Screenshots:<br>
<img src="https://i.imgur.com/zxR2U9M.jpg" class="bbCodeImage LbImage" alt="[​IMG]" data-url="https://i.imgur.com/zxR2U9M.jpg" style=""> <br>
<br>
<div class="bbCodeBlock bbCodeVfcHH HiddenContent">
<div class="attribution type">Hidden Content:</div>
<blockquote>You must either reply or click 'Like' to see the hidden information contained here.</blockquote>
</div>
<div class="messageTextEndMarker">&nbsp;</div>
</blockquote>
</article>]]></description>
                <author><![CDATA[LazyRips]]></author>
                </item>

                
                <item>
                <title><![CDATA[【Requests】[REQ AUD] - Jon McLaughlin - Indiana (2022 Deluxe Edition) &amp; Mood III in lossless]]></title>
                <link><![CDATA[https://sharemania.us/threads/jon-mclaughlin-indiana-2022-deluxe-edition-mood-iii-in-lossless.235097/]]></link>
                <description><![CDATA[<article>
<blockquote class="messageText SelectQuoteContainer ugc baseHtml">
Hi,<br>
<br>
Anyone wanna share the following albums from Jon McLaughlin in lossless format? Thank you!<br>
<br>
1. Indiana (2022 Deluxe Edition)<br>
<a href="https://music.apple.com/us/album/indiana-2022-deluxe-edition/1647423346" target="_blank" class="externalLink" rel="nofollow">https://music.apple.com/us/album/indiana-2022-deluxe-edition/1647423346</a><br>
<br>
2. Mood III<br>
<a href="https://music.apple.com/us/album/mood-iii/1713907081" target="_blank" class="externalLink" rel="nofollow">https://music.apple.com/us/album/mood-iii/1713907081</a>
<div class="messageTextEndMarker">&nbsp;</div>
</blockquote>
</article>]]></description>
                <author><![CDATA[jazon]]></author>
                </item>

                </channel></rss>